# xmcd CD database file
#
# Track frame offsets:
#	150
#	21387
#	44335
#
# Disc length: 873 seconds
#
# Revision: 1
# Processed by: cddbd v1.5PL3 Copyright (c) Steve Scherf et al.
# Submitted via: CDex 1.51
#
DISCID=20036703
DTITLE=和久井映見 - 抱きしめたいのはあなただけ
DYEAR=1992
DGENRE=J-POP
TTITLE0=抱きしめたいのはあなただけ
TTITLE1=涙になりたかった涙
TTITLE2=抱きしめたいのはあなただけ(オリジナルカラオケ)
EXTD=YEAR: 1992
EXTT0=
EXTT1=
EXTT2=
PLAYORDER=
